# xmcd
#
# Track frame offsets: 
#        150
#        12869
#        28474
#        48796
#        68565
#        90104
#        102203
#        126065
#        150726
#        168371
#        183162
#        195856
#
# Disc length: 2775 seconds
#
# Revision: 2
# Processed by: cddbd v1.5.2PL0 Copyright (c) Steve Scherf et al.
# Submitted via: ExactAudioCopy v1.1
#
DISCID=830ad50c
DTITLE=Carlene Carter - Carter Girl
DYEAR=2014
DGENRE=Country
TTITLE0=Little Black Train
TTITLE1=Give Me The Roses
TTITLE2=Me And The Wildwood Rose
TTITLE3=Blackie's Gunman
TTITLE4=I'll Be All Smiles Tonight
TTITLE5=Poor Old Heartsick Me
TTITLE6=Troublesome Waters
TTITLE7=Lonesome Valley 2003
TTITLE8=Tall Lover Man
TTITLE9=Gold Watch And Chain
TTITLE10=Black Jack David
TTITLE11=I Ain't Gonna Work Tomorrow
EXTD=
EXTT0=
EXTT1=
EXTT2=
EXTT3=
EXTT4=
EXTT5=
EXTT6=
EXTT7=
EXTT8=
EXTT9=
EXTT10=
EXTT11=
PLAYORDER=
